# xmcd CD database file
#
# Track frame offsets:
#	150
#	15792
#	33630
#	54780
#	69132
#	89777
#	106192
#	117117
#	134120
#	147007
#	163180
#	183667
#
# Disc length: 2617 seconds
#
# Revision: 0
# Processed by: cddbd v1.5PL3 Copyright (c) Steve Scherf et al.
# Submitted via: CDex 1.50beta8
#
DISCID=9e0a370c
DTITLE=The Barefoot Man and Band - 14 Fun Island Songs
DYEAR=1900
DGENRE=Merengue
TTITLE0=Hot, Hot, Hot
TTITLE1=Under the Coconut Tree
TTITLE2=Mary Anne - Matilda - Coconut Woman (Medley)
TTITLE3=It Don't Get Better Than This
TTITLE4=Jamaica Farewell
TTITLE5=Tropocal Beachcomber
TTITLE6=Island In the Sun
TTITLE7=Jump In the Line
TTITLE8=Peanut Butter and Jelly Fish Sandwich
TTITLE9=Money, Money, Money
TTITLE10=Day-o - Banana Boat Song
TTITLE11=Sailin the South Seas
EXTD=
EXTT0=
EXTT1=
EXTT2=
EXTT3=
EXTT4=
EXTT5=
EXTT6=
EXTT7=
EXTT8=
EXTT9=
EXTT10=
EXTT11=
PLAYORDER=
